<svg width="8" height="20" viewBox="0 0 8 20" fill="none" xmlns="http://www.w3.org/2000/svg">
<path d="M7.08002 0.0601431C7.29002 0.0601431 7.50003 0.0601431 7.92003 0.0601431V3.21014C7.71003 3.21014 7.29003 3.21014 6.87003 3.21014C6.45003 3.21014 6.03003 3.21014 5.82003 3.42014C5.61003 3.63014 5.61002 3.84014 5.61002 4.33014C5.61002 4.75014 5.61002 5.03014 5.61002 5.45014H7.92003V8.11014H5.61002V19.6601H2.04003V8.04014H0.150024V5.38014H2.04003V4.47014C2.04003 2.93014 2.25003 1.81014 2.67003 1.32014C3.30003 0.410143 4.56002 -0.00985718 6.45002 -0.00985718C6.66002 0.0601428 6.87002 0.0601431 7.08002 0.0601431Z" fill="#121417"/>
</svg>
