<svg width="24" height="24" viewBox="0 0 24 24" fill="none" xmlns="http://www.w3.org/2000/svg">
<path d="M23.1279 7.41145C23.1142 6.47139 22.9401 5.53879 22.6067 4.65957C22.0233 3.15821 20.8354 1.97103 19.3315 1.38985C18.4621 1.06325 17.5428 0.888157 16.6124 0.868288C15.4158 0.81489 15.0364 0.799988 11.9988 0.799988C8.96122 0.799988 8.57188 0.799988 7.38397 0.868288C6.45478 0.888157 5.53554 1.06325 4.66606 1.38985C3.1622 1.97103 1.97304 3.15821 1.3909 4.65957C1.06375 5.52761 0.887121 6.44532 0.869707 7.37296C0.816219 8.56883 0.800049 8.94759 0.800049 11.9801C0.800049 15.0127 0.800049 15.4001 0.869707 16.5873C0.888365 17.5162 1.06375 18.4326 1.3909 19.3032C1.97428 20.8033 3.1622 21.9905 4.66731 22.5716C5.53306 22.9094 6.45229 23.1006 7.38521 23.1304C8.58308 23.1838 8.96247 23.2 12.0001 23.2C15.0376 23.2 15.427 23.2 16.6149 23.1304C17.5441 23.1118 18.4633 22.9367 19.334 22.6101C20.8379 22.0277 22.0258 20.8405 22.6092 19.3404C22.9363 18.4711 23.1117 17.5547 23.1304 16.6245C23.1839 15.4299 23.2001 15.0511 23.2001 12.0174C23.1976 8.98484 23.1976 8.59988 23.1279 7.41145ZM11.9913 17.7149C8.81444 17.7149 6.24083 15.1455 6.24083 11.9739C6.24083 8.8023 8.81444 6.23296 11.9913 6.23296C15.1658 6.23296 17.7419 8.8023 17.7419 11.9739C17.7419 15.1455 15.1658 17.7149 11.9913 17.7149ZM17.9707 7.3593C17.2281 7.3593 16.6298 6.76074 16.6298 6.02061C16.6298 5.28049 17.2281 4.68193 17.9707 4.68193C18.7108 4.68193 19.3104 5.28049 19.3104 6.02061C19.3104 6.76074 18.7108 7.3593 17.9707 7.3593Z" fill="#121417"/>
</svg>
