<svg aria-hidden="true" style="position: absolute; width: 0; height: 0; overflow: hidden;" version="1.1" xmlns="http://www.w3.org/2000/svg" xmlns:xlink="http://www.w3.org/1999/xlink">
<defs>
<symbol id="icon-fluent-mdl2_error" viewBox="0 0 32 32">
<path fill="" style="" d="M15 0c1.385 0 2.714 0.177 3.984 0.531s2.469 0.854 3.594 1.5c1.125 0.646 2.135 1.427 3.031 2.344s1.677 1.932 2.344 3.047 1.172 2.307 1.516 3.578c0.344 1.271 0.521 2.604 0.531 4 0 1.385-0.177 2.714-0.531 3.984s-0.854 2.469-1.5 3.594c-0.646 1.125-1.427 2.135-2.344 3.031s-1.932 1.677-3.047 2.344-2.307 1.172-3.578 1.516c-1.271 0.344-2.604 0.521-4 0.531-1.385 0-2.714-0.177-3.984-0.531s-2.469-0.854-3.594-1.5c-1.125-0.646-2.135-1.427-3.031-2.344s-1.677-1.932-2.344-3.047-1.172-2.307-1.516-3.578c-0.344-1.271-0.521-2.604-0.531-4 0-1.385 0.177-2.714 0.531-3.984s0.854-2.469 1.5-3.594c0.646-1.125 1.427-2.135 2.344-3.031s1.932-1.677 3.047-2.344c1.115-0.667 2.307-1.172 3.578-1.516s2.604-0.521 4-0.531zM15 28c1.187 0 2.333-0.156 3.437-0.469s2.141-0.75 3.109-1.312c0.969-0.563 1.849-1.24 2.641-2.031s1.469-1.667 2.031-2.625c0.562-0.958 1-1.995 1.312-3.109s0.469-2.266 0.469-3.453-0.156-2.333-0.469-3.438c-0.312-1.104-0.75-2.141-1.312-3.109s-1.24-1.849-2.031-2.641c-0.792-0.792-1.667-1.469-2.625-2.031s-1.995-1-3.109-1.313c-1.115-0.313-2.266-0.469-3.453-0.469-1.198 0-2.349 0.156-3.453 0.469s-2.135 0.75-3.094 1.313c-0.958 0.563-1.839 1.24-2.641 2.031s-1.479 1.667-2.031 2.625c-0.552 0.958-0.99 1.995-1.313 3.109s-0.479 2.266-0.469 3.453c0 1.187 0.156 2.333 0.469 3.437s0.75 2.141 1.313 3.109c0.563 0.969 1.24 1.849 2.031 2.641s1.667 1.469 2.625 2.031c0.958 0.562 1.995 1 3.109 1.312s2.266 0.469 3.453 0.469zM14 8h2v10h-2v-10zM14 20h2v2h-2v-2z"></path>
</symbol>
</defs>
</svg>
