<svg width="26" height="18" viewBox="0 0 26 18" fill="none" xmlns="http://www.w3.org/2000/svg">
<path fill-rule="evenodd" clip-rule="evenodd" d="M20.21 0.249863C19.02 0.179863 16.57 0.109863 12.86 0.109863H12.37C8.79998 0.109863 6.42001 0.179863 5.23001 0.319863C3.62001 0.459863 2.49998 0.879863 1.86998 1.43986C1.30998 1.92986 0.889994 2.83986 0.749994 4.02986C0.679994 4.79986 0.609985 6.40986 0.609985 8.85986V9.20986C0.609985 11.5199 0.679977 13.1299 0.819977 13.8999C1.02998 15.0199 1.38001 15.8599 2.08001 16.3499C2.78001 16.9099 3.96999 17.2599 5.64999 17.3999C6.83999 17.4699 9.28999 17.5399 13 17.5399H13.49C17.06 17.5399 19.44 17.4699 20.63 17.3299C22.24 17.1899 23.36 16.7699 23.99 16.2099C24.55 15.7199 24.97 14.8099 25.11 13.6199C25.18 12.8499 25.25 11.2399 25.25 8.78986V8.43986C25.25 6.12986 25.18 4.51986 25.04 3.74986C24.83 2.62986 24.48 1.78986 23.78 1.29986C23.08 0.739863 21.89 0.389863 20.21 0.249863ZM17.48 8.85986L9.78001 13.4799V4.23986L17.48 8.85986Z" fill="#121417"/>
</svg>
